<svg width="174" height="31" viewBox="0 0 174 31" fill="none" xmlns="http://www.w3.org/2000/svg">
<g filter="url(#filter0_d_1_14)">
<path d="M165.305 4.40702C166.194 3.83529 167.362 3.87591 168.238 4.46576C169.044 4.99598 169.638 5.77413 169.924 6.67241C170.031 7.0138 170.025 7.37921 169.905 7.71681C169.785 8.05442 169.557 8.34708 169.255 8.5533C168.952 8.75951 168.59 8.86881 168.22 8.86569C167.849 8.86257 167.489 8.7472 167.19 8.53593L164.263 6.46437C164.263 5.39238 164.741 4.76925 165.305 4.40849V4.40702Z" fill="url(#paint0_linear_1_14)"/>
<path d="M156.355 4.40702C155.466 3.83529 154.298 3.87591 153.423 4.46576C152.617 4.99598 152.023 5.77413 151.737 6.67241C151.63 7.0138 151.636 7.37921 151.756 7.71681C151.876 8.05442 152.104 8.34708 152.406 8.5533C152.709 8.75951 153.071 8.86881 153.442 8.86569C153.812 8.86257 154.172 8.7472 154.471 8.53593L157.398 6.46437C157.398 5.39238 156.92 4.76925 156.356 4.40849L156.355 4.40702Z" fill="url(#paint1_linear_1_14)"/>
<path d="M155.813 6.24308C155.648 6.08492 155.425 5.99609 155.192 5.99609C154.96 5.99609 154.737 6.08492 154.572 6.24308C153.818 6.96363 153.203 7.80804 152.756 8.73658C153.036 8.8474 153.341 8.88706 153.642 8.85174C153.942 8.81642 154.228 8.70732 154.472 8.5349L155.947 7.27053C156.046 7.10928 156.087 6.92071 156.063 6.73464C156.038 6.54856 155.95 6.37559 155.813 6.24308Z" fill="#5C586F"/>
<path d="M168.124 13.7075C167.693 16.7424 165.668 18.3763 160.83 18.3763C155.299 18.3763 153.445 16.2421 153.445 12.3164C153.446 11.1994 153.72 10.0982 154.244 9.102C154.769 8.1058 155.53 7.2426 156.466 6.58231C157.402 5.92202 158.487 5.4832 159.631 5.30139C160.776 5.11958 161.95 5.1999 163.056 5.53584L168.124 13.7075Z" fill="url(#paint2_linear_1_14)"/>
<path d="M168.215 12.3184C168.217 12.7835 168.187 13.2483 168.124 13.7095C167.419 13.8975 166.678 13.9262 165.96 13.7932C165.241 13.6603 164.565 13.3694 163.982 12.9432C163.4 12.517 162.928 11.967 162.602 11.3362C162.277 10.7053 162.108 10.0107 162.107 9.30648C162.107 7.34849 162.315 6.19524 163.054 5.53735C164.551 5.99287 165.858 6.89581 166.787 8.11514C167.715 9.33447 168.215 10.8068 168.215 12.3184Z" fill="url(#paint3_linear_1_14)"/>
<path d="M155.842 12.2718C156.31 12.2718 156.69 11.9781 156.69 11.6159C156.69 11.2536 156.31 10.96 155.842 10.96C155.374 10.96 154.994 11.2536 154.994 11.6159C154.994 11.9781 155.374 12.2718 155.842 12.2718Z" fill="#FFAECF"/>
<path d="M165.818 12.2718C166.286 12.2718 166.666 11.9781 166.666 11.6159C166.666 11.2536 166.286 10.96 165.818 10.96C165.35 10.96 164.97 11.2536 164.97 11.6159C164.97 11.9781 165.35 12.2718 165.818 12.2718Z" fill="#FFAECF"/>
<path d="M158.955 10.2576C159.104 9.37542 158.482 8.54416 157.565 8.40095C156.649 8.25774 155.785 8.85682 155.636 9.73902C155.488 10.6212 156.11 11.4525 157.027 11.5957C157.943 11.7389 158.807 11.1398 158.955 10.2576Z" fill="white"/>
<path d="M164.365 11.6159C165.293 11.6159 166.046 10.8914 166.046 9.99767C166.046 9.10392 165.293 8.37939 164.365 8.37939C163.436 8.37939 162.684 9.10392 162.684 9.99767C162.684 10.8914 163.436 11.6159 164.365 11.6159Z" fill="white"/>
<path d="M158.306 10.1134C158.394 9.58619 158.022 9.0897 157.474 9.00448C156.927 8.91927 156.411 9.27761 156.322 9.80486C156.234 10.3321 156.606 10.8286 157.154 10.9138C157.702 10.999 158.217 10.6407 158.306 10.1134Z" fill="#383842"/>
<path d="M164.365 10.9618C164.918 10.9618 165.366 10.5301 165.366 9.99751C165.366 9.46494 164.918 9.0332 164.365 9.0332C163.811 9.0332 163.363 9.46494 163.363 9.99751C163.363 10.5301 163.811 10.9618 164.365 10.9618Z" fill="#383842"/>
<path d="M161.388 12.1077C161.187 12.1064 160.992 12.0459 160.828 11.9344C160.665 12.0459 160.47 12.1064 160.269 12.1077C160.128 12.1047 159.989 12.0736 159.861 12.0164C159.733 11.9592 159.618 11.8771 159.525 11.7753C159.501 11.7513 159.483 11.7231 159.471 11.6924C159.46 11.6616 159.454 11.629 159.455 11.5962C159.457 11.5634 159.464 11.5312 159.479 11.5014C159.493 11.4715 159.513 11.4447 159.538 11.4224C159.563 11.4 159.592 11.3826 159.624 11.3712C159.656 11.3597 159.69 11.3544 159.724 11.3556C159.758 11.3568 159.791 11.3644 159.822 11.3781C159.853 11.3917 159.881 11.4111 159.904 11.4351C159.948 11.4891 160.004 11.5328 160.068 11.5628C160.132 11.5929 160.202 11.6085 160.273 11.6085C160.344 11.6085 160.414 11.5929 160.478 11.5628C160.541 11.5328 160.597 11.4891 160.641 11.4351C160.665 11.41 160.694 11.3901 160.727 11.3764C160.76 11.3627 160.795 11.3557 160.83 11.3557C160.866 11.3557 160.901 11.3627 160.934 11.3764C160.967 11.3901 160.996 11.41 161.02 11.4351C161.064 11.4891 161.12 11.5328 161.183 11.5628C161.247 11.5929 161.317 11.6085 161.388 11.6085C161.459 11.6085 161.529 11.5929 161.593 11.5628C161.657 11.5328 161.713 11.4891 161.756 11.4351C161.78 11.4111 161.808 11.3917 161.839 11.3781C161.87 11.3644 161.903 11.3568 161.937 11.3556C161.971 11.3544 162.005 11.3597 162.037 11.3712C162.069 11.3826 162.098 11.4 162.123 11.4224C162.148 11.4447 162.168 11.4715 162.182 11.5014C162.196 11.5312 162.204 11.5634 162.206 11.5962C162.207 11.629 162.201 11.6616 162.189 11.6924C162.178 11.7231 162.16 11.7513 162.136 11.7753C162.042 11.8775 161.927 11.9599 161.799 12.0171C161.67 12.0743 161.53 12.1052 161.388 12.1077H161.388Z" fill="#383842"/>
<path d="M161.751 10.303C161.751 10.5889 161.339 10.8199 160.83 10.8199C160.322 10.8199 159.909 10.5889 159.909 10.303C159.909 10.0172 160.322 9.98389 160.83 9.98389C161.339 9.98389 161.751 10.0177 161.751 10.303Z" fill="#383842"/>
<path d="M15.8065 10.2387C15.2294 10.1546 14.6879 9.91789 14.2423 9.55501C13.7967 9.19213 13.4645 8.7173 13.2827 8.18341C13.1008 7.64951 13.0766 7.07751 13.2125 6.53111C13.3485 5.98471 13.6393 5.48536 14.0527 5.08869C15.2848 3.90264 17.6554 3.54433 18.8875 4.73038C18.9688 4.80861 19.0439 4.89255 19.1123 4.98149L15.8065 10.2387Z" fill="url(#paint4_linear_1_14)"/>
<path d="M18.5152 9.38398C18.1653 9.7215 17.7377 9.9748 17.267 10.1233C16.7963 10.2718 16.2959 10.3113 15.8064 10.2386C15.6112 9.68424 15.5443 9.09548 15.6104 8.51358C15.6764 7.93168 15.8737 7.3707 16.1886 6.86991C16.5034 6.36912 16.9282 5.94063 17.4331 5.61442C17.938 5.28822 18.5109 5.07218 19.1116 4.98145C20.0686 6.21547 19.6654 8.27723 18.5152 9.38398Z" fill="url(#paint5_linear_1_14)"/>
<path d="M7.83973 10.2387C8.41682 10.1546 8.95833 9.91789 9.40394 9.55501C9.84955 9.19213 10.1818 8.7173 10.3636 8.18341C10.5454 7.64951 10.5697 7.07751 10.4337 6.53111C10.2978 5.98471 10.0069 5.48536 9.59356 5.08869C8.36145 3.90264 5.9908 3.54433 4.7592 4.73038C4.67763 4.80848 4.60232 4.89243 4.53394 4.98149L7.83973 10.2387Z" fill="url(#paint6_linear_1_14)"/>
<path d="M5.13143 9.38398C5.48119 9.72149 5.90874 9.97479 6.37934 10.1233C6.84993 10.2718 7.35029 10.3113 7.83973 10.2386C7.98665 9.82267 8.06139 9.38623 8.06093 8.94686C8.06069 7.98971 7.70514 7.06415 7.05842 6.33713C6.4117 5.6101 5.51637 5.12947 4.53394 4.98193C3.57998 6.21547 3.98069 8.27723 5.13143 9.38398Z" fill="url(#paint7_linear_1_14)"/>
<path d="M6.36934 6.65742C6.27289 6.56501 6.157 6.49357 6.02946 6.4479C5.90193 6.40223 5.7657 6.38341 5.62997 6.39268C5.49424 6.40196 5.36214 6.43913 5.24259 6.50168C5.12303 6.56423 5.01879 6.65072 4.93688 6.75532C4.66017 7.10533 4.41244 7.47571 4.19598 7.86305C4.37819 8.43414 4.6987 8.9554 5.13113 9.38392C5.37921 9.62321 5.66709 9.82091 5.98287 9.96887L6.61698 7.52628C6.65704 7.37319 6.65529 7.21273 6.61189 7.06049C6.5685 6.90825 6.48494 6.76939 6.36934 6.65742Z" fill="#FD748D"/>
<path d="M4.79383 12.651C4.75461 12.3647 4.73507 12.0763 4.73535 11.7875C4.75119 9.988 5.50491 8.26737 6.83241 7.00027C8.15992 5.73317 9.95369 5.02222 11.8232 5.02222C13.6926 5.02222 15.4864 5.73317 16.8139 7.00027C18.1414 8.26737 18.8951 9.988 18.911 11.7875C18.9115 12.0764 18.8919 12.3651 18.8525 12.6515L4.79383 12.651Z" fill="url(#paint8_linear_1_14)"/>
<path d="M18.853 12.6514C18.4035 15.8708 15.4272 17.1229 11.8234 17.1229C8.21962 17.1229 5.24283 15.8708 4.79382 12.6509C6.62444 10.966 8.45506 11.5598 10.3874 8.0447C10.5253 7.79364 10.7324 7.58398 10.9859 7.4387C11.1754 7.32966 11.3858 7.25875 11.6046 7.23026C11.8234 7.20176 12.0459 7.21628 12.2586 7.27292C12.4714 7.32957 12.67 7.42717 12.8425 7.55983C13.0149 7.69248 13.1576 7.85743 13.262 8.0447C15.1907 11.5598 17.0249 10.966 18.8555 12.6514H18.853Z" fill="url(#paint9_linear_1_14)"/>
<path d="M7.27476 11.898C7.70163 11.898 8.04769 11.6302 8.04769 11.2998C8.04769 10.9695 7.70163 10.7017 7.27476 10.7017C6.84788 10.7017 6.50183 10.9695 6.50183 11.2998C6.50183 11.6302 6.84788 11.898 7.27476 11.898Z" fill="#FFAECF"/>
<path d="M16.3713 11.898C16.7982 11.898 17.1442 11.6302 17.1442 11.2998C17.1442 10.9695 16.7982 10.7017 16.3713 10.7017C15.9444 10.7017 15.5984 10.9695 15.5984 11.2998C15.5984 11.6302 15.9444 11.898 16.3713 11.898Z" fill="#FFAECF"/>
<path d="M8.59983 11.2998C9.44629 11.2998 10.1325 10.6393 10.1325 9.82447C10.1325 9.00966 9.44629 8.34912 8.59983 8.34912C7.75338 8.34912 7.0672 9.00966 7.0672 9.82447C7.0672 10.6393 7.75338 11.2998 8.59983 11.2998Z" fill="white"/>
<path d="M15.0462 11.2998C15.8926 11.2998 16.5788 10.6393 16.5788 9.82447C16.5788 9.00966 15.8926 8.34912 15.0462 8.34912C14.1997 8.34912 13.5135 9.00966 13.5135 9.82447C13.5135 10.6393 14.1997 11.2998 15.0462 11.2998Z" fill="white"/>
<path d="M8.59988 10.7041C9.10455 10.7041 9.51366 10.3103 9.51366 9.82445C9.51366 9.33865 9.10455 8.94482 8.59988 8.94482C8.09521 8.94482 7.6861 9.33865 7.6861 9.82445C7.6861 10.3103 8.09521 10.7041 8.59988 10.7041Z" fill="#383842"/>
<path d="M15.0463 10.7041C15.551 10.7041 15.9601 10.3103 15.9601 9.82445C15.9601 9.33865 15.551 8.94482 15.0463 8.94482C14.5416 8.94482 14.1325 9.33865 14.1325 9.82445C14.1325 10.3103 14.5416 10.7041 15.0463 10.7041Z" fill="#383842"/>
<path d="M12.3319 11.7705C12.1504 11.7691 11.9734 11.7157 11.8234 11.6172C11.6736 11.716 11.4965 11.7694 11.3149 11.7705C11.1825 11.7682 11.0521 11.7394 10.9318 11.6861C10.8115 11.6328 10.7041 11.556 10.6162 11.4606C10.5717 11.4118 10.5486 11.3482 10.552 11.2833C10.5553 11.2185 10.5848 11.1574 10.6342 11.1131C10.6836 11.0688 10.7489 11.0448 10.8164 11.0462C10.8839 11.0475 10.9482 11.0742 10.9956 11.1204C11.0332 11.1673 11.0816 11.2053 11.1369 11.2315C11.1922 11.2576 11.253 11.2712 11.3147 11.2712C11.3763 11.2712 11.4371 11.2576 11.4924 11.2315C11.5477 11.2053 11.5961 11.1673 11.6337 11.1204C11.658 11.0954 11.6874 11.0754 11.72 11.0617C11.7526 11.0481 11.7878 11.041 11.8234 11.041C11.859 11.041 11.8942 11.0481 11.9268 11.0617C11.9595 11.0754 11.9888 11.0954 12.0131 11.1204C12.0508 11.1673 12.0991 11.2053 12.1544 11.2315C12.2097 11.2576 12.2705 11.2712 12.3322 11.2712C12.3938 11.2712 12.4546 11.2576 12.5099 11.2315C12.5652 11.2053 12.6136 11.1673 12.6513 11.1204C12.6987 11.0742 12.7629 11.0475 12.8304 11.0462C12.8979 11.0448 12.9632 11.0688 13.0126 11.1131C13.062 11.1574 13.0915 11.2185 13.0949 11.2833C13.0982 11.3482 13.0752 11.4118 13.0306 11.4606C12.9428 11.556 12.8355 11.6327 12.7153 11.6861C12.5951 11.7394 12.4647 11.7681 12.3324 11.7705H12.3319Z" fill="#383842"/>
<path d="M31.783 12.1895H26.158V18H23.2283V3.78125H32.4861V6.1543H26.158V9.82617H31.783V12.1895ZM39.6834 10.0801C39.2993 10.028 38.9608 10.002 38.6678 10.002C37.6001 10.002 36.9002 10.3633 36.5682 11.0859V18H33.7459V7.43359H36.4119L36.4901 8.69336C37.0565 7.72331 37.841 7.23828 38.8436 7.23828C39.1561 7.23828 39.449 7.2806 39.7225 7.36523L39.6834 10.0801ZM40.2596 12.6191C40.2596 11.571 40.4614 10.6367 40.8651 9.81641C41.2687 8.99609 41.8481 8.36133 42.6033 7.91211C43.3651 7.46289 44.2472 7.23828 45.2498 7.23828C46.6756 7.23828 47.8377 7.67448 48.7361 8.54688C49.6411 9.41927 50.1457 10.6042 50.2498 12.1016L50.2693 12.8242C50.2693 14.4453 49.8169 15.7474 48.9119 16.7305C48.007 17.707 46.7928 18.1953 45.2693 18.1953C43.7459 18.1953 42.5285 17.707 41.617 16.7305C40.7121 15.7539 40.2596 14.4258 40.2596 12.7461V12.6191ZM43.0818 12.8242C43.0818 13.8268 43.2707 14.5951 43.6483 15.1289C44.0259 15.6562 44.5662 15.9199 45.2693 15.9199C45.9529 15.9199 46.4868 15.6595 46.8709 15.1387C47.255 14.6113 47.4471 13.7715 47.4471 12.6191C47.4471 11.6361 47.255 10.8743 46.8709 10.334C46.4868 9.79362 45.9464 9.52344 45.2498 9.52344C44.5597 9.52344 44.0259 9.79362 43.6483 10.334C43.2707 10.8678 43.0818 11.6979 43.0818 12.8242ZM54.6053 7.43359L54.6932 8.6543C55.4484 7.71029 56.4608 7.23828 57.7303 7.23828C58.8501 7.23828 59.6834 7.56706 60.2303 8.22461C60.7772 8.88216 61.0571 9.86523 61.0701 11.1738V18H58.2479V11.2422C58.2479 10.6432 58.1177 10.2103 57.8572 9.94336C57.5968 9.66992 57.1639 9.5332 56.5584 9.5332C55.7641 9.5332 55.1684 9.87174 54.7713 10.5488V18H51.949V7.43359H54.6053ZM66.5975 4.83594V7.43359H68.4041V9.50391H66.5975V14.7773C66.5975 15.168 66.6723 15.4479 66.8221 15.6172C66.9718 15.7865 67.2583 15.8711 67.6815 15.8711C67.994 15.8711 68.2707 15.8483 68.5115 15.8027V17.9414C67.9582 18.1107 67.3885 18.1953 66.8026 18.1953C64.8234 18.1953 63.8143 17.196 63.7752 15.1973V9.50391H62.2322V7.43359H63.7752V4.83594H66.5975Z" fill="white"/>
<path d="M79.3606 13.2832H82.2805C82.2219 14.2402 81.9583 15.0898 81.4895 15.832C81.0273 16.5742 80.3795 17.1536 79.5461 17.5703C78.7193 17.987 77.7232 18.1953 76.5579 18.1953C75.6464 18.1953 74.8293 18.0391 74.1067 17.7266C73.384 17.4076 72.7655 16.9518 72.2512 16.3594C71.7434 15.7669 71.356 15.0508 71.0891 14.2109C70.8222 13.3711 70.6887 12.4303 70.6887 11.3887V10.4023C70.6887 9.36068 70.8254 8.41992 71.0989 7.58008C71.3788 6.73372 71.776 6.01432 72.2903 5.42188C72.8111 4.82943 73.4329 4.3737 74.1555 4.05469C74.8782 3.73568 75.6855 3.57617 76.5774 3.57617C77.7623 3.57617 78.7616 3.79102 79.5754 4.2207C80.3958 4.65039 81.0305 5.24284 81.4797 5.99805C81.9355 6.75326 82.2089 7.61263 82.3 8.57617H79.3704C79.3378 8.00326 79.2239 7.51823 79.0286 7.12109C78.8333 6.71745 78.537 6.41471 78.1399 6.21289C77.7493 6.00456 77.2284 5.90039 76.5774 5.90039C76.0891 5.90039 75.6627 5.99154 75.2981 6.17383C74.9335 6.35612 74.6275 6.63281 74.3801 7.00391C74.1327 7.375 73.9472 7.84375 73.8235 8.41016C73.7063 8.97005 73.6477 9.6276 73.6477 10.3828V11.3887C73.6477 12.1243 73.703 12.7721 73.8137 13.332C73.9244 13.8854 74.0937 14.3542 74.3215 14.7383C74.5559 15.1159 74.8554 15.4023 75.22 15.5977C75.5911 15.7865 76.037 15.8809 76.5579 15.8809C77.1698 15.8809 77.6744 15.7832 78.0715 15.5879C78.4687 15.3926 78.7714 15.1029 78.9797 14.7188C79.1946 14.3346 79.3215 13.8561 79.3606 13.2832ZM89.7317 15.6172V10.9102C89.7317 10.5716 89.6764 10.2819 89.5657 10.041C89.455 9.79362 89.2825 9.60156 89.0481 9.46484C88.8202 9.32812 88.524 9.25977 88.1594 9.25977C87.8469 9.25977 87.5767 9.3151 87.3489 9.42578C87.121 9.52995 86.9452 9.68294 86.8215 9.88477C86.6978 10.0801 86.636 10.3112 86.636 10.5781H83.8235C83.8235 10.1289 83.9277 9.70247 84.136 9.29883C84.3443 8.89518 84.6471 8.54036 85.0442 8.23438C85.4413 7.92188 85.9133 7.67773 86.4602 7.50195C87.0136 7.32617 87.6321 7.23828 88.3157 7.23828C89.136 7.23828 89.8652 7.375 90.5032 7.64844C91.1412 7.92188 91.6425 8.33203 92.0071 8.87891C92.3782 9.42578 92.5637 10.1094 92.5637 10.9297V15.4512C92.5637 16.0306 92.5995 16.5059 92.6711 16.877C92.7428 17.2415 92.8469 17.5605 92.9836 17.834V18H90.1418C90.0051 17.7135 89.901 17.3555 89.8293 16.9258C89.7642 16.4896 89.7317 16.0534 89.7317 15.6172ZM90.1028 11.5645L90.1223 13.1562H88.55C88.179 13.1562 87.8567 13.1986 87.5833 13.2832C87.3098 13.3678 87.0852 13.4883 86.9094 13.6445C86.7336 13.7943 86.6034 13.9701 86.5188 14.1719C86.4407 14.3737 86.4016 14.5951 86.4016 14.8359C86.4016 15.0768 86.4569 15.2949 86.5676 15.4902C86.6783 15.679 86.8378 15.8288 87.0461 15.9395C87.2545 16.0436 87.4986 16.0957 87.7786 16.0957C88.2017 16.0957 88.5696 16.0111 88.8821 15.8418C89.1946 15.6725 89.4355 15.4642 89.6047 15.2168C89.7805 14.9694 89.8717 14.735 89.8782 14.5137L90.6204 15.7051C90.5162 15.972 90.373 16.2487 90.1907 16.5352C90.0149 16.8216 89.7903 17.0918 89.5168 17.3457C89.2434 17.5931 88.9146 17.7982 88.5305 17.9609C88.1464 18.1172 87.6907 18.1953 87.1633 18.1953C86.4928 18.1953 85.884 18.0618 85.3372 17.7949C84.7968 17.5215 84.3671 17.1471 84.0481 16.6719C83.7356 16.1901 83.5793 15.6432 83.5793 15.0312C83.5793 14.4779 83.6835 13.9863 83.8918 13.5566C84.1002 13.127 84.4062 12.7656 84.8098 12.4727C85.22 12.1732 85.731 11.9486 86.343 11.7988C86.955 11.6426 87.6646 11.5645 88.4719 11.5645H90.1028ZM99.9075 7.43359V9.42578H93.7551V7.43359H99.9075ZM95.2786 4.82617H98.0911V14.8164C98.0911 15.1224 98.1301 15.3568 98.2083 15.5195C98.2929 15.6823 98.4166 15.7962 98.5793 15.8613C98.7421 15.9199 98.9472 15.9492 99.1946 15.9492C99.3704 15.9492 99.5266 15.9427 99.6633 15.9297C99.8066 15.9102 99.927 15.8906 100.025 15.8711L100.034 17.9414C99.7935 18.0195 99.5331 18.0814 99.2532 18.127C98.9732 18.1725 98.664 18.1953 98.3254 18.1953C97.7069 18.1953 97.1666 18.0944 96.7043 17.8926C96.2486 17.6842 95.8971 17.3522 95.6497 16.8965C95.4023 16.4408 95.2786 15.8418 95.2786 15.0996V4.82617ZM103.745 10.3926L106.48 8.625C106.883 8.35807 107.154 8.10091 107.29 7.85352C107.427 7.60612 107.495 7.32943 107.495 7.02344C107.495 6.71745 107.381 6.43424 107.154 6.17383C106.926 5.9069 106.607 5.77344 106.197 5.77344C105.904 5.77344 105.656 5.8418 105.454 5.97852C105.253 6.10872 105.1 6.28451 104.995 6.50586C104.898 6.72721 104.849 6.97461 104.849 7.24805C104.849 7.54102 104.927 7.84049 105.083 8.14648C105.24 8.44596 105.451 8.76497 105.718 9.10352C105.985 9.43555 106.281 9.79688 106.607 10.1875L113.316 18H110.122L104.654 11.6719C104.191 11.099 103.788 10.5749 103.443 10.0996C103.098 9.61784 102.827 9.14909 102.632 8.69336C102.437 8.23763 102.339 7.76888 102.339 7.28711C102.339 6.54492 102.499 5.89714 102.818 5.34375C103.137 4.78385 103.586 4.35091 104.165 4.04492C104.745 3.73242 105.425 3.57617 106.206 3.57617C106.942 3.57617 107.58 3.72917 108.12 4.03516C108.661 4.33464 109.077 4.73177 109.37 5.22656C109.67 5.72135 109.82 6.26497 109.82 6.85742C109.82 7.30013 109.738 7.71029 109.575 8.08789C109.413 8.45898 109.188 8.80404 108.902 9.12305C108.615 9.43555 108.286 9.72526 107.915 9.99219L104.8 12.209C104.559 12.4303 104.377 12.6484 104.253 12.8633C104.129 13.0781 104.045 13.2832 103.999 13.4785C103.954 13.6673 103.931 13.8496 103.931 14.0254C103.931 14.403 104.012 14.7415 104.175 15.041C104.338 15.3405 104.566 15.5749 104.859 15.7441C105.152 15.9134 105.493 15.998 105.884 15.998C106.418 15.998 106.935 15.8809 107.437 15.6465C107.938 15.4121 108.387 15.0768 108.784 14.6406C109.182 14.1979 109.497 13.6738 109.732 13.0684C109.966 12.4629 110.083 11.7956 110.083 11.0664H112.466C112.466 11.7956 112.394 12.4889 112.251 13.1465C112.108 13.7975 111.877 14.403 111.558 14.9629C111.239 15.5163 110.816 16.0078 110.288 16.4375C110.249 16.4701 110.194 16.5189 110.122 16.584C110.057 16.6426 110.002 16.6882 109.956 16.7207C109.331 17.222 108.68 17.5964 108.003 17.8438C107.326 18.0846 106.571 18.2051 105.738 18.2051C104.787 18.2051 103.963 18.0326 103.267 17.6875C102.577 17.3424 102.043 16.8672 101.665 16.2617C101.294 15.6562 101.109 14.9629 101.109 14.1816C101.109 13.6087 101.219 13.1107 101.441 12.6875C101.669 12.2578 101.981 11.8607 102.378 11.4961C102.775 11.1315 103.231 10.7637 103.745 10.3926ZM119.214 18H116.118L116.138 15.7148H119.214C119.982 15.7148 120.63 15.5423 121.157 15.1973C121.685 14.8457 122.082 14.3346 122.349 13.6641C122.622 12.9935 122.759 12.1829 122.759 11.2324V10.5391C122.759 9.8099 122.681 9.16862 122.525 8.61523C122.375 8.06185 122.15 7.59635 121.851 7.21875C121.551 6.84115 121.184 6.55794 120.747 6.36914C120.311 6.17383 119.81 6.07617 119.243 6.07617H116.06V3.78125H119.243C120.194 3.78125 121.063 3.94401 121.851 4.26953C122.645 4.58854 123.332 5.04753 123.911 5.64648C124.491 6.24544 124.937 6.96159 125.249 7.79492C125.568 8.62174 125.728 9.54297 125.728 10.5586V11.2324C125.728 12.2415 125.568 13.1628 125.249 13.9961C124.937 14.8294 124.491 15.5456 123.911 16.1445C123.338 16.737 122.652 17.196 121.851 17.5215C121.057 17.8405 120.178 18 119.214 18ZM117.779 3.78125V18H114.849V3.78125H117.779ZM127.232 12.8242V12.6191C127.232 11.8444 127.342 11.1315 127.564 10.4805C127.785 9.82292 128.107 9.25326 128.531 8.77148C128.954 8.28971 129.475 7.91536 130.093 7.64844C130.712 7.375 131.421 7.23828 132.222 7.23828C133.023 7.23828 133.736 7.375 134.361 7.64844C134.986 7.91536 135.51 8.28971 135.933 8.77148C136.363 9.25326 136.688 9.82292 136.909 10.4805C137.131 11.1315 137.241 11.8444 137.241 12.6191V12.8242C137.241 13.5924 137.131 14.3053 136.909 14.9629C136.688 15.6139 136.363 16.1836 135.933 16.6719C135.51 17.1536 134.989 17.528 134.37 17.7949C133.752 18.0618 133.042 18.1953 132.241 18.1953C131.441 18.1953 130.728 18.0618 130.103 17.7949C129.484 17.528 128.96 17.1536 128.531 16.6719C128.107 16.1836 127.785 15.6139 127.564 14.9629C127.342 14.3053 127.232 13.5924 127.232 12.8242ZM130.044 12.6191V12.8242C130.044 13.2669 130.083 13.6803 130.161 14.0645C130.24 14.4486 130.363 14.7871 130.532 15.0801C130.708 15.3665 130.936 15.5911 131.216 15.7539C131.496 15.9167 131.838 15.998 132.241 15.998C132.632 15.998 132.967 15.9167 133.247 15.7539C133.527 15.5911 133.752 15.3665 133.921 15.0801C134.09 14.7871 134.214 14.4486 134.292 14.0645C134.377 13.6803 134.419 13.2669 134.419 12.8242V12.6191C134.419 12.1895 134.377 11.7858 134.292 11.4082C134.214 11.0241 134.087 10.6855 133.911 10.3926C133.742 10.0931 133.517 9.85872 133.238 9.68945C132.958 9.52018 132.619 9.43555 132.222 9.43555C131.825 9.43555 131.486 9.52018 131.206 9.68945C130.933 9.85872 130.708 10.0931 130.532 10.3926C130.363 10.6855 130.24 11.0241 130.161 11.4082C130.083 11.7858 130.044 12.1895 130.044 12.6191ZM145.659 7.43359H148.208V17.6484C148.208 18.612 147.993 19.429 147.564 20.0996C147.141 20.7767 146.548 21.2878 145.786 21.6328C145.025 21.9844 144.139 22.1602 143.13 22.1602C142.687 22.1602 142.219 22.1016 141.724 21.9844C141.236 21.8672 140.767 21.6849 140.318 21.4375C139.875 21.1901 139.504 20.8776 139.204 20.5L140.445 18.8398C140.77 19.2174 141.148 19.5104 141.577 19.7188C142.007 19.9336 142.482 20.041 143.003 20.041C143.511 20.041 143.941 19.9466 144.292 19.7578C144.644 19.5755 144.914 19.3053 145.103 18.9473C145.292 18.5957 145.386 18.1693 145.386 17.668V9.875L145.659 7.43359ZM138.55 12.8438V12.6387C138.55 11.8314 138.648 11.099 138.843 10.4414C139.045 9.77734 139.328 9.20768 139.693 8.73242C140.064 8.25716 140.513 7.88932 141.04 7.62891C141.568 7.36849 142.163 7.23828 142.827 7.23828C143.531 7.23828 144.12 7.36849 144.595 7.62891C145.07 7.88932 145.461 8.26042 145.767 8.74219C146.073 9.21745 146.31 9.7806 146.48 10.4316C146.656 11.0762 146.792 11.7826 146.89 12.5508V13C146.792 13.7357 146.646 14.4193 146.45 15.0508C146.255 15.6823 145.998 16.2357 145.679 16.7109C145.36 17.1797 144.963 17.5443 144.488 17.8047C144.019 18.0651 143.459 18.1953 142.808 18.1953C142.157 18.1953 141.568 18.0618 141.04 17.7949C140.519 17.528 140.073 17.1536 139.702 16.6719C139.331 16.1901 139.045 15.6237 138.843 14.9727C138.648 14.3216 138.55 13.612 138.55 12.8438ZM141.363 12.6387V12.8438C141.363 13.2799 141.405 13.6868 141.49 14.0645C141.574 14.4421 141.704 14.7773 141.88 15.0703C142.062 15.3568 142.287 15.5814 142.554 15.7441C142.827 15.9004 143.15 15.9785 143.521 15.9785C144.035 15.9785 144.455 15.8711 144.781 15.6562C145.106 15.4349 145.35 15.1322 145.513 14.748C145.676 14.3639 145.77 13.9212 145.796 13.4199V12.1406C145.783 11.7305 145.728 11.3626 145.63 11.0371C145.532 10.7051 145.396 10.4219 145.22 10.1875C145.044 9.95312 144.816 9.77083 144.536 9.64062C144.256 9.51042 143.924 9.44531 143.54 9.44531C143.169 9.44531 142.847 9.52995 142.573 9.69922C142.307 9.86198 142.082 10.0866 141.9 10.373C141.724 10.6595 141.59 10.998 141.499 11.3887C141.408 11.7728 141.363 12.1895 141.363 12.6387Z" fill="#F0A83E"/>
</g>
<defs>
<filter id="filter0_d_1_14" x="0" y="3.57617" width="174" height="26.584" filterUnits="userSpaceOnUse" color-interpolation-filters="sRGB">
<feFlood flood-opacity="0" result="BackgroundImageFix"/>
<feColorMatrix in="SourceAlpha" type="matrix" values="0 0 0 0 0 0 0 0 0 0 0 0 0 0 0 0 0 0 127 0" result="hardAlpha"/>
<feOffset dy="4"/>
<feGaussianBlur stdDeviation="2"/>
<feComposite in2="hardAlpha" operator="out"/>
<feColorMatrix type="matrix" values="0 0 0 0 0 0 0 0 0 0 0 0 0 0 0 0 0 0 0.25 0"/>
<feBlend mode="normal" in2="BackgroundImageFix" result="effect1_dropShadow_1_14"/>
<feBlend mode="normal" in="SourceGraphic" in2="effect1_dropShadow_1_14" result="shape"/>
</filter>
<linearGradient id="paint0_linear_1_14" x1="164.265" y1="6.43144" x2="170.002" y2="6.43144" gradientUnits="userSpaceOnUse">
<stop stop-color="#4F4C5F"/>
<stop offset="1" stop-color="#77718A"/>
</linearGradient>
<linearGradient id="paint1_linear_1_14" x1="151.66" y1="6.43144" x2="157.397" y2="6.43144" gradientUnits="userSpaceOnUse">
<stop stop-color="#77718A"/>
<stop offset="1" stop-color="#4F4C5F"/>
</linearGradient>
<linearGradient id="paint2_linear_1_14" x1="160.786" y1="18.3759" x2="160.786" y2="5.20574" gradientUnits="userSpaceOnUse">
<stop stop-color="#F0A83E"/>
<stop offset="1" stop-color="#FFF5E3"/>
</linearGradient>
<linearGradient id="paint3_linear_1_14" x1="162.108" y1="9.70336" x2="168.216" y2="9.70336" gradientUnits="userSpaceOnUse">
<stop stop-color="#EFC4AB"/>
<stop offset="1" stop-color="#3C2313"/>
</linearGradient>
<linearGradient id="paint4_linear_1_14" x1="984.617" y1="1492.3" x2="1675.34" y2="1492.3" gradientUnits="userSpaceOnUse">
<stop stop-color="#4F4C5F"/>
<stop offset="1" stop-color="#77718A"/>
</linearGradient>
<linearGradient id="paint5_linear_1_14" x1="15.5863" y1="7.62681" x2="19.647" y2="7.62681" gradientUnits="userSpaceOnUse">
<stop stop-color="#FD869C"/>
<stop offset="1" stop-color="#FDB0BF"/>
</linearGradient>
<linearGradient id="paint6_linear_1_14" x1="-15.9998" y1="1492.3" x2="674.724" y2="1492.3" gradientUnits="userSpaceOnUse">
<stop stop-color="#77718A"/>
<stop offset="1" stop-color="#4F4C5F"/>
</linearGradient>
<linearGradient id="paint7_linear_1_14" x1="3.99978" y1="7.62681" x2="8.061" y2="7.62681" gradientUnits="userSpaceOnUse">
<stop stop-color="#FDB0BF"/>
<stop offset="1" stop-color="#FD869C"/>
</linearGradient>
<linearGradient id="paint8_linear_1_14" x1="11.8235" y1="12.6512" x2="11.8235" y2="4.96422" gradientUnits="userSpaceOnUse">
<stop stop-color="#FDB58A"/>
<stop offset="1" stop-color="#3C2313"/>
</linearGradient>
<linearGradient id="paint9_linear_1_14" x1="11.8235" y1="17.1232" x2="11.8235" y2="7.21538" gradientUnits="userSpaceOnUse">
<stop stop-color="#FFF5E3"/>
<stop offset="1" stop-color="#F0A83E"/>
</linearGradient>
</defs>
</svg>
